HIERARCHY
ROOT Hips
{
	OFFSET 0.000000 0.000000 0.000000
	CHANNELS 6 Xposition Yposition Zposition Xrotation Yrotation Zrotation
	JOINT LeftUpLeg_virtual
	{
		OFFSET 0.000000 0.000000 0.000000
		CHANNELS 3 Xrotation Yrotation Zrotation
		JOINT LeftUpLeg
		{
			OFFSET 11.394100 -6.187798 -0.413800
			CHANNELS 3 Xrotation Yrotation Zrotation
			JOINT LeftLeg
			{
				OFFSET 0.430247 -32.302673 3.732800
				CHANNELS 3 Xrotation Yrotation Zrotation
				JOINT LeftFoot
				{
					OFFSET -0.430247 -48.264931 -6.423300
					CHANNELS 3 Xrotation Yrotation Zrotation
					JOINT LeftToeBase
					{
						OFFSET 4.230900 -16.068199 23.438400
						CHANNELS 3 Xrotation Yrotation Zrotation
						JOINT LeftToe_End
						{
							OFFSET 4.510700 0.695400 19.974600
							CHANNELS 3 Xrotation Yrotation Zrotation
							End Site
							{
								OFFSET 0 0 0
							}
						}
					}
				}
			}
		}
	}
	JOINT RightUpLeg_virtual
	{
		OFFSET 0.000000 0.000000 0.000000
		CHANNELS 3 Xrotation Yrotation Zrotation
		JOINT RightUpLeg
		{
			OFFSET -11.333700 -6.187798 -0.413800
			CHANNELS 3 Xrotation Yrotation Zrotation
			JOINT RightLeg
			{
				OFFSET -0.430392 -32.302628 3.733000
				CHANNELS 3 Xrotation Yrotation Zrotation
				JOINT RightFoot
				{
					OFFSET 0.430392 -48.264973 -6.423500
					CHANNELS 3 Xrotation Yrotation Zrotation
					JOINT RightToeBase
					{
						OFFSET -4.230900 -16.068199 23.438400
						CHANNELS 3 Xrotation Yrotation Zrotation
						JOINT RightToe_End
						{
							OFFSET -4.510700 0.695400 19.974600
							CHANNELS 3 Xrotation Yrotation Zrotation
							End Site
							{
								OFFSET 0 0 0
							}
						}
					}
				}
			}
		}
	}
	JOINT Spine_virtual
	{
		OFFSET 0.000000 0.000000 0.000000
		CHANNELS 3 Xrotation Yrotation Zrotation
		JOINT Spine
		{
			OFFSET -0.002400 12.777504 0.315300
			CHANNELS 3 Xrotation Yrotation Zrotation
			JOINT Spine1
			{
				OFFSET -0.002067 5.816869 0.032633
				CHANNELS 3 Xrotation Yrotation Zrotation
				JOINT Spine1_split
				{
					OFFSET -0.002067 5.816869 0.032633
					CHANNELS 3 Xrotation Yrotation Zrotation
					JOINT Spine2
					{
						OFFSET -0.002067 5.816869 0.032633
						CHANNELS 3 Xrotation Yrotation Zrotation
						JOINT Neck_virtual
						{
							OFFSET 0.000000 0.000000 0.000000
							CHANNELS 3 Xrotation Yrotation Zrotation
							JOINT Neck
							{
								OFFSET -0.003700 21.199493 -0.826900
								CHANNELS 3 Xrotation Yrotation Zrotation
								JOINT Head
								{
									OFFSET 0.000000 20.442200 4.834800
									CHANNELS 3 Xrotation Yrotation Zrotation
									JOINT HeadTop_End
									{
										OFFSET 0.000000 34.668396 4.968400
										CHANNELS 3 Xrotation Yrotation Zrotation
										End Site
										{
											OFFSET 0 0 0
										}
									}
								}
							}
						}
						JOINT LeftShoulder_virtual
						{
							OFFSET 0.000000 0.000000 0.000000
							CHANNELS 3 Xrotation Yrotation Zrotation
							JOINT LeftShoulder
							{
								OFFSET 3.288150 8.794197 -1.372250
								CHANNELS 3 Xrotation Yrotation Zrotation
								JOINT LeftShoulder_split
								{
									OFFSET 3.288150 8.794197 -1.372250
									CHANNELS 3 Xrotation Yrotation Zrotation
									JOINT LeftArm
									{
										OFFSET 11.953299 -2.279007 -0.146200
										CHANNELS 3 Xrotation Yrotation Zrotation
										JOINT LeftForeArm
										{
											OFFSET 18.448900 0.000000 0.000000
											CHANNELS 3 Xrotation Yrotation Zrotation
											JOINT LeftHand
											{
												OFFSET 29.527798 0.000000 0.000000
												CHANNELS 3 Xrotation Yrotation Zrotation
												End Site
												{
													OFFSET 0 0 0
												}
											}
										}
									}
								}
							}
						}
						JOINT RightShoulder_virtual
						{
							OFFSET 0.000000 0.000000 0.000000
							CHANNELS 3 Xrotation Yrotation Zrotation
							JOINT RightShoulder
							{
								OFFSET -3.249400 8.794197 -1.372250
								CHANNELS 3 Xrotation Yrotation Zrotation
								JOINT RightShoulder_split
								{
									OFFSET -3.249400 8.794197 -1.372250
									CHANNELS 3 Xrotation Yrotation Zrotation
									JOINT RightArm
									{
										OFFSET -11.953299 -2.279007 -0.146200
										CHANNELS 3 Xrotation Yrotation Zrotation
										JOINT RightForeArm
										{
											OFFSET -18.448900 0.000000 0.000000
											CHANNELS 3 Xrotation Yrotation Zrotation
											JOINT RightHand
											{
												OFFSET -29.527802 0.000000 0.000000
												CHANNELS 3 Xrotation Yrotation Zrotation
												End Site
												{
													OFFSET 0 0 0
												}
											}
										}
									}
								}
							}
						}
					}
				}
			}
		}
	}
}
MOTION
Frames: 9
Frame Time: 0.03333333
1.361384 100.330353 -0.636368 0.000000 0.000000 0.000000 3.004197 -31.573898 1.237557 -18.394606 14.975253 13.201689 16.845489 13.413575 -1.908706 -3.194729 -5.882001 -4.701178 3.798759 -0.194218 -1.017264 0.000000 0.000000 0.000000 4.409692 -31.634069 1.340581 -9.662345 2.201912 -8.463924 7.334179 7.920991 0.190572 0.428618 -0.652908 3.326507 -4.641682 -0.193215 -1.040634 0.000000 0.000000 0.000000 4.058392 -29.408547 0.855249 8.636302 1.621339 -0.230716 0.771267 -0.747372 2.103941 0.048439 -0.649745 1.032573 0.000000 0.000000 0.000000 1.890374 -0.217916 2.233850 -4.670127 21.377816 -6.122279 -5.739852 12.470203 0.177455 0.000000 0.000000 0.000000 1.465013 -0.578209 2.663728 0.801901 -10.689892 -1.339171 2.259464 -0.439124 1.033882 -60.389083 0.426879 -37.041697 6.628268 -59.674782 9.106499 0.000000 0.000000 0.000000 0.397874 -0.588359 2.850870 4.010987 7.408053 7.191744 -2.574192 -3.209987 -1.793641 -1.520815 3.316702 65.146706 13.154846 24.691648 -4.337643 0.000000 0.000000 0.000000 
1.426531 100.204857 -0.755985 0.000000 0.000000 0.000000 2.941416 -32.057431 1.534491 -18.379704 15.361691 13.103911 16.986346 13.240531 -1.822950 -3.252371 -6.107991 -4.601140 3.537369 -0.161869 -1.031350 0.000000 0.000000 0.000000 4.506715 -31.804059 1.590517 -9.925963 1.510272 -8.657950 7.260733 7.710428 0.229760 0.735295 -0.471506 4.081919 -5.578409 -0.295584 -0.991976 0.000000 0.000000 0.000000 3.802045 -29.442357 0.899589 8.680201 1.568688 -0.385780 0.715017 -0.783720 2.145382 0.218126 -0.795134 1.250974 0.000000 0.000000 0.000000 1.904497 -0.268201 2.314577 -4.318981 21.783587 -6.144135 -5.767616 12.947945 -0.033499 0.000000 0.000000 0.000000 1.315231 -0.607954 2.686650 0.754356 -10.089687 -1.593145 2.164069 -0.675000 1.019417 -60.256161 0.699642 -36.698070 6.571778 -59.726630 8.886391 0.000000 0.000000 0.000000 0.344648 -0.642477 2.923529 3.918935 7.429484 7.489640 -2.508001 -3.602066 -1.746860 -0.829559 3.256303 64.740310 13.215463 24.573940 -4.374650 0.000000 0.000000 0.000000 
1.528818 100.032394 -0.940720 0.000000 0.000000 0.000000 3.191563 -31.970664 1.928313 -18.536479 15.493934 12.849248 17.242147 12.986021 -1.664130 -3.154934 -6.618683 -4.426592 3.303659 -0.099294 -1.011274 0.000000 0.000000 0.000000 4.610220 -31.660184 1.969746 -10.170347 0.685278 -8.972570 7.855830 7.319875 0.186589 0.090778 -0.224109 4.859467 -5.320645 -0.372768 -0.913885 0.000000 0.000000 0.000000 3.762824 -29.244049 1.088549 8.524979 1.452515 -0.663457 0.653693 -0.799636 2.217006 0.451644 -0.966911 1.323932 0.000000 0.000000 0.000000 1.827783 -0.293991 2.443257 -4.083079 22.775698 -6.111412 -5.661971 14.523600 -0.395896 0.000000 0.000000 0.000000 1.207309 -0.614131 2.729899 0.717389 -8.959197 -1.712021 2.172427 -0.864042 0.973389 -59.907384 1.447977 -36.025392 6.120973 -60.038162 8.305163 0.000000 0.000000 0.000000 0.331641 -0.657613 3.014898 3.865245 7.546765 7.812775 -2.460454 -3.599032 -1.665500 0.131095 2.930509 64.197754 13.255468 24.595091 -4.379778 0.000000 0.000000 0.000000 
1.646711 99.862274 -1.089916 0.000000 0.000000 0.000000 3.669826 -31.334599 2.274977 -18.899854 15.342721 12.551597 17.492241 12.768141 -1.488503 -2.895965 -7.333996 -4.189221 3.176857 -0.002737 -0.975331 0.000000 0.000000 0.000000 4.783087 -31.105009 2.331394 -10.360194 -0.056346 -9.284893 8.776861 6.779391 0.058282 -1.397274 0.101639 5.746394 -4.035562 -0.379828 -1.030638 0.000000 0.000000 0.000000 3.935372 -28.847297 1.294475 8.226259 1.327584 -0.956839 0.587446 -0.755601 2.283268 0.409634 -1.095875 1.219441 0.000000 0.000000 0.000000 1.649004 -0.260844 2.566240 -3.987336 24.260357 -6.079670 -5.438258 16.941159 -0.886677 0.000000 0.000000 0.000000 1.173018 -0.562817 2.758132 0.695922 -7.397563 -1.685867 2.290325 -0.881212 1.070455 -59.372915 2.640740 -34.961747 5.310658 -60.461777 7.419288 0.000000 0.000000 0.000000 0.353652 -0.593203 3.077197 3.834985 7.784930 8.101566 -2.302428 -3.165783 -1.587143 1.102381 2.493265 63.662800 13.284846 24.691436 -4.351140 0.000000 0.000000 0.000000 
1.793105 99.709763 -1.120975 0.000000 0.000000 0.000000 4.274011 -30.307742 2.478801 -19.560781 14.926426 12.275162 17.792429 12.608516 -1.319443 -2.513548 -8.143435 -3.886788 3.211578 0.119231 -0.957972 0.000000 0.000000 0.000000 5.089971 -30.230612 2.557814 -10.563204 -0.627301 -9.504367 9.876533 6.227498 -0.183934 -3.152039 0.491516 7.248184 -3.167400 -0.283906 -1.532554 0.000000 0.000000 0.000000 4.291422 -28.304437 1.454072 7.813141 1.269544 -1.157480 0.520401 -0.626460 2.310649 0.329113 -1.194715 1.067218 0.000000 0.000000 0.000000 1.415375 -0.129812 2.622903 -3.990093 26.173512 -6.122853 -5.180833 19.938021 -1.488227 0.000000 0.000000 0.000000 1.214088 -0.408630 2.735800 0.690023 -5.548168 -1.550255 2.428993 -0.787793 1.256019 -58.703270 4.200455 -33.556395 4.360568 -60.913505 6.410683 0.000000 0.000000 0.000000 0.417412 -0.416267 3.062510 3.805146 8.092997 8.345021 -2.092699 -2.483274 -1.590457 1.891578 2.053636 63.219329 13.300566 24.736549 -4.294931 0.000000 0.000000 0.000000 
1.989089 99.566666 -0.986935 0.000000 0.000000 0.000000 4.750387 -29.063838 2.438823 -20.363091 14.412345 12.043504 18.250368 12.517931 -1.200732 -2.101242 -8.940343 -3.514012 3.397353 0.249051 -0.975720 0.000000 0.000000 0.000000 5.417175 -28.993774 2.556654 -10.852170 -1.017588 -9.546721 11.117704 5.728090 -0.571278 -4.726302 0.832957 9.373484 -3.490101 -0.089621 -2.362867 0.000000 0.000000 0.000000 4.639821 -27.564892 1.481767 7.374805 1.325213 -1.197417 0.473995 -0.379282 2.272898 0.381875 -1.205623 0.972386 0.000000 0.000000 0.000000 1.185259 0.125930 2.581142 -4.007635 28.381634 -6.322502 -4.978068 23.213564 -2.192376 0.000000 0.000000 0.000000 1.323560 -0.129210 2.641228 0.699231 -3.562809 -1.391527 2.509191 -0.877186 1.296960 -58.019821 5.897412 -31.958930 3.495022 -61.476128 5.484440 0.000000 0.000000 0.000000 0.520495 -0.109208 2.945429 3.754701 8.420229 8.564129 -1.835805 -1.872891 -1.605565 2.400067 1.593878 62.910550 13.280349 24.480107 -4.215875 0.000000 0.000000 0.000000 
2.264415 99.407227 -0.710827 0.000000 0.000000 0.000000 4.999663 -27.681174 2.244980 -21.169463 14.006994 11.786967 19.053228 12.541929 -1.182415 -1.779143 -9.663763 -3.004114 3.623848 0.359876 -1.019459 0.000000 0.000000 0.000000 5.721516 -27.334829 2.350752 -11.416810 -1.337469 -9.455728 12.887417 5.162181 -1.098030 -6.045179 0.838682 11.304040 -4.583376 0.167415 -3.072856 0.000000 0.000000 0.000000 4.868329 -26.662075 1.408545 6.978047 1.505280 -1.044807 0.452308 -0.012863 2.165459 0.514968 -1.009690 0.980815 0.000000 0.000000 0.000000 1.018623 0.493418 2.435462 -3.892730 30.783847 -6.736235 -4.869087 26.566400 -2.970553 0.000000 0.000000 0.000000 1.455916 0.267733 2.468259 0.713093 -1.536247 -1.333153 2.629825 -1.216860 1.285071 -57.393642 7.477083 -30.346367 2.907385 -62.336247 4.800745 0.000000 0.000000 0.000000 0.657548 0.308997 2.733272 3.699845 8.712080 8.778122 -1.519415 -1.421059 -1.610599 2.632610 1.070225 62.765955 13.205840 23.796198 -4.123011 0.000000 0.000000 0.000000 
2.640817 99.134254 -0.323864 0.000000 0.000000 0.000000 5.102361 -26.218530 2.088721 -21.992128 13.879884 11.420998 20.330541 12.602142 -1.292546 -1.650476 -10.323260 -2.413532 3.621072 0.435876 -1.003531 0.000000 0.000000 0.000000 5.851343 -25.550785 2.106313 -12.683746 -1.740895 -9.394521 15.772409 4.343415 -1.703880 -7.110687 0.326812 12.248910 -6.089377 0.351564 -3.091122 0.000000 0.000000 0.000000 4.927503 -25.567655 1.356388 6.673625 1.787739 -0.766117 0.451308 0.433477 2.008322 0.664424 -0.830931 1.059592 0.000000 0.000000 0.000000 0.977742 0.946889 2.218870 -3.540389 33.266983 -7.418413 -4.842447 29.800361 -3.811299 0.000000 0.000000 0.000000 1.552832 0.756118 2.249266 0.724025 0.478020 -1.460572 2.769857 -1.687563 1.241034 -56.962135 8.857448 -28.747959 2.604632 -63.576439 4.380487 0.000000 0.000000 0.000000 0.790770 0.779111 2.455383 3.655767 8.893832 8.969441 -1.116850 -1.163150 -1.655112 2.628218 0.432991 62.778297 13.070022 22.772783 -4.043391 0.000000 0.000000 0.000000 
3.108393 98.755302 0.158596 0.000000 0.000000 0.000000 4.944083 -24.511749 2.072972 -22.789023 14.139001 10.909688 22.026279 12.645496 -1.556944 -1.752917 -10.963167 -1.842055 3.332787 0.468087 -0.843006 0.000000 0.000000 0.000000 5.585114 -23.728731 1.939880 -14.948876 -2.184595 -9.641238 20.490569 3.227604 -2.271933 -7.700808 -0.675474 11.558166 -7.715386 0.344001 -2.044276 0.000000 0.000000 0.000000 4.782009 -24.047071 1.388197 6.562834 2.104057 -0.488215 0.470484 0.918105 1.839286 0.737249 -0.751796 1.021645 0.000000 0.000000 0.000000 1.033953 1.437802 1.979487 -2.948668 35.642393 -8.345020 -4.848917 32.684211 -4.697307 0.000000 0.000000 0.000000 1.587142 1.276055 2.030594 0.739473 2.496374 -1.800852 2.890066 -2.099915 1.203817 -56.808507 10.126234 -27.053008 2.529728 -65.181342 4.173745 0.000000 0.000000 0.000000 0.891924 1.251919 2.159216 3.636328 8.957378 9.090102 -0.672415 -1.125700 -1.695688 2.492941 -0.262456 62.918992 12.863708 21.642011 -4.015998 0.000000 0.000000 0.000000 
